<svg xmlns="http://www.w3.org/2000/svg" xmlns:xlink="http://www.w3.org/1999/xlink" viewBox="0 0 800 800"><defs><path id="A" d="M633.4 479.6l-42.4-55 32.6-72.4c.8-1.9.6-4-.6-5.7l-48.5-67.3c-1.2-1.7-3.2-2.6-5.2-2.3l-82.5 8.4a5.72 5.72 0 0 0-4.6 3.3l-33.7 75-69 22.1-70.3-41a5.79 5.79 0 0 0-5.7 0l-72 41.1c-1.8 1-2.9 2.9-2.9 4.9l-.4 80.3-62.7 39.6c-2.7 1.7-3.5 5.2-1.8 7.9 1.1 1.7 2.9 2.7 4.8 2.7a5.53 5.53 0 0 0 3-.9l62.9-39.7 68.2 39.8c.9.5 1.9.8 2.9.8s2-.3 2.8-.8l72-41.1c.1 0 .1-.1.1-.1l71.4 23.5c.6.2 1.2.3 1.8.3 1.8 0 3.5-.8 4.6-2.3l44.8-61.2 78.8-8 42.5 55c1.1 1.5 2.8 2.2 4.5 2.2 1.2 0 2.4-.4 3.5-1.2 2.6-1.8 3-5.4 1.1-7.9zM491.2 296.3l76-7.7 44.6 61.9-31.3 69.6-75.9 7.7-44.7-62 31.3-69.5zM305.5 508.9l-65.6-38.3c0-.1-.1-.1-.1-.2l-.3-.3.3-76 66.3-37.9 66 38.5-.4 76.4-66.2 37.8zm146-18.4L383.3 468l.3-71.8 68.3-21.9 42 58.2-42.4 58z"/><path id="B" d="M105.1 242.7h587V578h-587z"/></defs><use xlink:href="#A"/><clipPath id="C"><use xlink:href="#A"/></clipPath><use xlink:href="#B" clip-path="url(#C)"/><defs><path id="D" d="M256.9 396.1c-3.2 0-5.7 2.5-5.8 5.7l-.7 60.9c0 3.2 2.5 5.7 5.7 5.8h.1c3.1 0 5.7-2.5 5.7-5.7l.7-60.9c0-3.2-2.5-5.7-5.7-5.8z"/></defs><use xlink:href="#D"/><clipPath id="E"><use xlink:href="#D"/></clipPath><use xlink:href="#B" clip-path="url(#E)"/><defs><path id="F" d="M359 400.2l-52.6-30.7c-2.7-1.6-6.2-.7-7.8 2.1-1.6 2.7-.7 6.2 2.1 7.8l52.6 30.7c.9.5 1.9.8 2.9.8 2 0 3.9-1 4.9-2.8 1.6-2.8.7-6.3-2.1-7.9z"/></defs><use xlink:href="#F"/><clipPath id="G"><use xlink:href="#F"/></clipPath><use xlink:href="#B" clip-path="url(#G)"/><defs><path id="H" d="M481.6 429l-30-41c-1.9-2.5-5.4-3.1-8-1.2-2.5 1.9-3.1 5.4-1.2 8l30 41c1.1 1.5 2.9 2.3 4.6 2.3 1.2 0 2.4-.4 3.4-1.1 2.5-1.9 3.1-5.5 1.2-8z"/></defs><use xlink:href="#H"/><clipPath id="I"><use xlink:href="#H"/></clipPath><use xlink:href="#B" clip-path="url(#I)"/><defs><path id="J" d="M565.4 409.4c.8.4 1.6.5 2.4.5 2.1 0 4.2-1.2 5.2-3.3l23.5-50.3c1.3-2.9.1-6.3-2.8-7.6s-6.3-.1-7.6 2.8l-23.5 50.3c-1.3 2.9-.1 6.3 2.8 7.6z"/></defs><use xlink:href="#J"/><clipPath id="K"><use xlink:href="#J"/></clipPath><use xlink:href="#B" clip-path="url(#K)"/><defs><path id="L" d="M503.9 315.4h.5l55.3-4.8c3.1-.3 5.5-3 5.2-6.2-.3-3.1-3-5.5-6.2-5.2l-55.3 4.8c-3.1.3-5.5 3-5.2 6.2.3 2.9 2.8 5.2 5.7 5.2z"/></defs><use xlink:href="#L"/><clipPath id="M"><use xlink:href="#L"/></clipPath><use xlink:href="#B" clip-path="url(#M)"/><defs><path id="N" d="M352.2 455.4l-52.9 30.2c-2.7 1.6-3.7 5.1-2.1 7.8 1.1 1.8 3 2.9 5 2.9 1 0 1.9-.2 2.8-.8l52.9-30.2c2.7-1.6 3.7-5.1 2.1-7.8s-5.1-3.7-7.8-2.1z"/></defs><use xlink:href="#N"/><clipPath id="O"><use xlink:href="#N"/></clipPath><use xlink:href="#B" clip-path="url(#O)"/></svg>