<svg xmlns="http://www.w3.org/2000/svg" xmlns:xlink="http://www.w3.org/1999/xlink" viewBox="0 0 800 800"><defs><path id="A" d="M663.6 252.6c-.2-3.4-3.1-5.9-6.5-5.7l-86.3 5.2-72.3-47.5a6 6 0 0 0-8.4 1.7c-1.8 2.8-1.1 6.6 1.7 8.4l69.4 45.6-35.6 71.1-85.1 4.9c-2.2.1-4.1 1.4-5.1 3.3L398 414.1l-82.7 22.2-60.4-60.3c-1.5-1.5-3.8-2.1-5.9-1.6l-85.5 23c-2.1.6-3.7 2.2-4.3 4.3l-22.8 85.5c-.6 2.1 0 4.4 1.6 5.9l62.6 62.5c.8.8 1.7 1.3 2.7 1.6s2.1.3 3.2 0l83.6-22.5 100.7 36.9c.2.1.4.1.5.2 2.3.6 4.8-.2 6.3-2.1l56.9-70.4c1.7-2.1 1.8-4.9.4-7.2l-46.6-71.6 36.4-72.4 84.7-4.9c2.2 0 4.4-1.2 5.5-3.3l38-76 84.8-5.1c3.6 0 6.1-2.8 5.9-6.2zm-378 270.9l-78.7 21.2-57.7-57.5 21-78.7 78.7-21.2 57.7 57.5-21 78.7zm105.6 35.3L298 524.7l20.4-76.3 79.3-21.3 44.9 68.3-51.4 63.4z"/><path id="B" d="M563.8 659.7L109.7 538.4l110.6-414.5 454.2 121.3z"/></defs><clipPath id="C"><use xlink:href="#A"/></clipPath><linearGradient id="D" gradientUnits="userSpaceOnUse" x1="164.96" y1="331.237" x2="619.121" y2="452.463"><stop offset="0" stop-color="#fa0"/><stop offset=".214" stop-color="#f50"/><stop offset=".431" stop-color="#DA0B17"/><stop offset=".763" stop-color="#00a"/><stop offset="1" stop-color="#0af"/></linearGradient><use xlink:href="#B" clip-path="url(#C)" fill="url(#D)"/><defs><path id="E" d="M181.3 417.5c-3.3.9-5.2 4.2-4.4 7.5.6 2.2 2.3 3.8 4.3 4.3a5.45 5.45 0 0 0 3.1 0l62.9-16.5c3.3-.9 5.2-4.2 4.4-7.5-.9-3.3-4.2-5.2-7.4-4.4l-62.9 16.6z"/></defs><clipPath id="F"><use xlink:href="#E"/></clipPath><use xlink:href="#B" clip-path="url(#F)" fill="url(#D)"/><defs><path id="G" d="M268.7 515.9c3.3.9 6.6-1.1 7.5-4.3l16.8-62.8c.9-3.3-1.1-6.6-4.3-7.5-3.3-.9-6.6 1.1-7.5 4.3l-16.8 62.8c-.9 3.3 1.1 6.6 4.3 7.5z"/></defs><clipPath id="H"><use xlink:href="#G"/></clipPath><use xlink:href="#B" clip-path="url(#H)" fill="url(#D)"/><defs><path id="I" d="M428 494.1l-35.5-54.4c-1.8-2.8-5.6-3.6-8.4-1.8s-3.6 5.6-1.8 8.4l35.5 54.4c.9 1.3 2.1 2.2 3.5 2.6 1.6.4 3.4.2 4.9-.8 2.8-1.8 3.6-5.6 1.8-8.4z"/></defs><clipPath id="J"><use xlink:href="#I"/></clipPath><use xlink:href="#B" clip-path="url(#J)" fill="url(#D)"/><defs><path id="K" d="M217.5 520l-46-45.9c-2.4-2.4-6.2-2.4-8.6 0s-2.4 6.2 0 8.6l46 45.9c.8.8 1.7 1.3 2.7 1.6 2 .5 4.3 0 5.9-1.6 2.4-2.3 2.4-6.2 0-8.6z"/></defs><clipPath id="L"><use xlink:href="#K"/></clipPath><use xlink:href="#B" clip-path="url(#L)" fill="url(#D)"/></svg>