<svg xmlns="http://www.w3.org/2000/svg" xmlns:xlink="http://www.w3.org/1999/xlink" viewBox="0 0 800 800"><defs><path id="A" d="M628.7 210.2a5.67 5.67 0 0 0-7.2-3.6l-76.3 25.3-76.2-25.3a5.67 5.67 0 0 0-3.6 10.8l73.3 24.3v.1l-14.9 72.4-75 24.8c-1.9.6-3.4 2.3-3.8 4.2l-15.6 75.6-69 39.8-66.1-38.1c.1-.3.2-.6.2-1v-82.3c0-.7-.2-1.5-.4-2.2-.3-.7-.7-1.3-1.2-1.8L239.7 280v-.1l53-53c2.1-2.1 2.5-5.6.5-7.8-2.2-2.6-6-2.7-8.4-.4l-53 53.3h-.1l-53-53c-2.1-2.1-5.6-2.5-7.8-.5-2.6 2.2-2.7 6-.4 8.4l53.2 53.2v.1l-53 53c-2.3 2.3-2.4 6.2 0 8.4 1.1 1 2.4 1.5 3.8 1.5 1.5 0 2.9-.6 4-1.7l53.2-53.2h.1l51.5 51.5v79.9c0 .3.1.6.2 1l-68.6 39.6c-1.8 1-2.8 2.9-2.8 4.9v82.3c0 2 1.1 3.9 2.8 4.9l71.2 41.1c.9.5 1.9.8 2.8.8 1 0 2-.3 2.8-.8l69.7-40.2 99.8 9c2.2 0 4.3-1.3 5.2-3.4l34.2-76.8c1-2.2.4-4.9-1.4-6.5l-59-53.1v-.1l15.1-73.4 75-24.9c.7-.2 1.3-.6 1.8-1l.5-.5a4.44 4.44 0 0 0 .8-1.1l.6-1.6 15.9-77.3 74.9-24.9c3.3-1.2 4.9-4.4 3.9-7.4zM354.5 544.1L289 581.9h-.1l-65.5-37.8v-75.7l65.6-37.8 65.5 37.8v75.7c.1-.1.1-.1 0 0zm103.3 6.3l-91.8-8.3s-.1 0-.1-.1v-73.4l65.8-38h.1l56.8 50.5v.1l-30.8 69.2z"/><path id="B" d="M164.2 200.4h472.2v400.8H164.2z"/></defs><use xlink:href="#A"/><clipPath id="C"><use xlink:href="#A"/></clipPath><use xlink:href="#B" clip-path="url(#C)"/><defs><path id="D" d="M235.6 473.8c-2.7 1.5-3.7 5-2.1 7.7 1 1.8 3 2.9 4.9 2.9.9 0 1.9-.2 2.8-.7l52.5-29.9c2.7-1.5 3.7-5 2.1-7.7s-5-3.7-7.7-2.1l-52.5 29.8z"/></defs><use xlink:href="#D"/><clipPath id="E"><use xlink:href="#D"/></clipPath><path d="M164.3 200.4h472.2v400.8H164.3z" clip-path="url(#E)"/><defs><path id="F" d="M292.6 557.3l-52.3-30.2c-2.7-1.6-6.2-.6-7.7 2.1-1.6 2.7-.6 6.2 2.1 7.7l52.3 30.2c.9.5 1.9.8 2.8.8 2 0 3.9-1 4.9-2.8 1.5-2.8.6-6.2-2.1-7.8z"/></defs><use xlink:href="#F"/><clipPath id="G"><use xlink:href="#F"/></clipPath><use xlink:href="#B" clip-path="url(#G)"/><defs><path id="H" d="M338.1 541.3c3-.3 5.2-3 5.2-5.9v-59.8c0-3-2.2-5.7-5.2-5.9-3.4-.3-6.2 2.3-6.2 5.6v60.4c0 3.2 2.8 5.8 6.2 5.6z"/></defs><use xlink:href="#H"/><clipPath id="I"><use xlink:href="#H"/></clipPath><use xlink:href="#B" clip-path="url(#I)"/><defs><path id="J" d="M475.4 483.5l-44.9-40.4c-2.3-2.1-5.9-1.9-8 .4s-1.9 5.9.4 8l44.9 40.4c1.1 1 2.4 1.5 3.8 1.5 1.6 0 3.1-.6 4.2-1.9 2.1-2.3 1.9-5.9-.4-8z"/></defs><use xlink:href="#J"/><clipPath id="K"><use xlink:href="#J"/></clipPath><use xlink:href="#B" clip-path="url(#K)"/></svg>