<svg xmlns="http://www.w3.org/2000/svg" xmlns:xlink="http://www.w3.org/1999/xlink" viewBox="0 0 800 800"><linearGradient id="A" gradientUnits="userSpaceOnUse" x1="37.03" y1="399.343" x2="762.09" y2="399.343"><stop offset="0" stop-color="#fa0"/><stop offset=".214" stop-color="#f50"/><stop offset=".431" stop-color="#DA0B17"/><stop offset=".763" stop-color="#00a"/><stop offset="1" stop-color="#0af"/></linearGradient><path d="M758.8 532.4c-3.1-1.8-7.1-.7-8.9 2.4l-44.2 77-85 .2-43.2-74.4 32.5-72.9c1-2.2.4-4.9-1.4-6.5l-62.2-56v-77.6c0-2-1.1-3.9-2.8-4.9l-68.4-39.5V201c0-2-1.1-3.9-2.8-4.9L401 155a5.79 5.79 0 0 0-5.7 0l-67.7 39.1-65.7-37.9V99c0-3.1-2.5-5.7-5.7-5.7-3.1 0-5.7 2.5-5.7 5.7v57.1l-63.7 36.8-70.1-40.5a5.79 5.79 0 0 0-5.7 0l-71.3 41.1c-2.7 1.6-3.6 5-2.1 7.7 1.6 2.7 5 3.6 7.7 2.1l68.4-39.5 65.6 37.9v75.8L111.1 317c-2.7 1.6-3.6 5-2.1 7.7 1 1.8 3 2.8 4.9 2.8 1 0 1.9-.2 2.8-.8l71.3-41.1c1.8-1 2.8-2.9 2.8-4.9v-77.1l65.4-37.7 65.1 37.6v79.8c0 2 1.1 3.9 2.8 4.9l68.4 39.5v75.7L324.1 443c-1.8 1-2.8 2.9-2.8 4.9v82.3c0 2 1.1 3.9 2.8 4.9l71.3 41.1c.9.5 1.9.8 2.8.8 1 0 2-.3 2.8-.8l69.7-40.2 95.8 8.7 43 73.9-44.2 77c-1.8 3.1-.7 7.1 2.4 8.9 1 .6 2.1.9 3.2.9 2.3 0 4.4-1.2 5.6-3.3l44.2-77 88.8-.2a6.48 6.48 0 0 0 5.6-3.3l46-80.3c1.9-3.2.8-7.1-2.3-8.9zM332.6 280.1v-75.7l65.6-37.9 65.6 37.9v75.7L398.2 318l-65.6-37.9zm131.2 246.8l-65.6 37.9-65.6-37.9v-75.7l65.4-37.8 65.7 37.9v75.6zm5.8-85.5l-65.7-37.9v-75.6l65.6-37.9 65.6 37.9v75.7l-65.5 37.8zm5.5 10.1l66.4-38.4 56.4 50.8-30.7 69c-.2.1-.4.2-.5.3l-91.6-8.3v-73.4z" fill="url(#A)"/><defs><path id="B" d="M404.3 302.1c1.6-2.7.6-6.2-2.1-7.7l-52.3-30.2c-2.7-1.6-6.2-.6-7.7 2.1-1.6 2.7-.6 6.2 2.1 7.7l52.3 30.2c.9.5 1.9.8 2.8.8 1.9-.1 3.8-1.1 4.9-2.9z"/><path id="C" d="M40.1 251h721.6v315.7H40.1z"/></defs><clipPath id="D"><use xlink:href="#B"/></clipPath><linearGradient id="E" gradientUnits="userSpaceOnUse" x1="40.086" y1="408.891" x2="761.712" y2="408.891"><stop offset="0" stop-color="#fa0"/><stop offset=".214" stop-color="#f50"/><stop offset=".431" stop-color="#DA0B17"/><stop offset=".763" stop-color="#00a"/><stop offset="1" stop-color="#0af"/></linearGradient><use xlink:href="#C" style="clip-path:url(#D)" fill="url(#E)"/><defs><path id="F" d="M531.7 426.2c-2.1 2.3-1.9 5.9.4 8l44.9 40.4c1.1 1 2.4 1.5 3.8 1.5 1.6 0 3.1-.6 4.2-1.9 2.1-2.3 1.9-5.9-.4-8l-44.9-40.4c-2.4-2.1-6-1.9-8 .4z"/></defs><clipPath id="G"><use xlink:href="#F"/></clipPath><linearGradient id="H" gradientUnits="userSpaceOnUse" x1="40.03" y1="408.769" x2="761.657" y2="408.769"><stop offset="0" stop-color="#fa0"/><stop offset=".214" stop-color="#f50"/><stop offset=".431" stop-color="#DA0B17"/><stop offset=".763" stop-color="#00a"/><stop offset="1" stop-color="#0af"/></linearGradient><path d="M40 250.9h721.6v315.7H40z" style="clip-path:url(#G)" fill="url(#H)"/><defs><path id="I" d="M401.8 540.1l-52.3-30.2c-2.7-1.6-6.2-.6-7.7 2.1-1.6 2.7-.6 6.2 2.1 7.7l52.3 30.2c.9.5 1.9.8 2.8.8 2 0 3.9-1 4.9-2.8 1.5-2.7.6-6.2-2.1-7.8z"/></defs><clipPath id="J"><use xlink:href="#I"/></clipPath><linearGradient id="K" gradientUnits="userSpaceOnUse" x1="40.093" y1="408.798" x2="761.719" y2="408.798"><stop offset="0" stop-color="#fa0"/><stop offset=".214" stop-color="#f50"/><stop offset=".431" stop-color="#DA0B17"/><stop offset=".763" stop-color="#00a"/><stop offset="1" stop-color="#0af"/></linearGradient><use xlink:href="#C" y="0.1" style="clip-path:url(#J)" fill="url(#K)"/><defs><path id="L" d="M446.8 452.4c-3.1 0-5.7 2.5-5.7 5.7v60.4c0 3.1 2.5 5.7 5.7 5.7a5.63 5.63 0 0 0 5.7-5.7v-60.4c0-3.1-2.6-5.7-5.7-5.7z"/></defs><clipPath id="M"><use xlink:href="#L"/></clipPath><linearGradient id="N" gradientUnits="userSpaceOnUse" x1="40.086" y1="408.844" x2="761.712" y2="408.844"><stop offset="0" stop-color="#fa0"/><stop offset=".214" stop-color="#f50"/><stop offset=".431" stop-color="#DA0B17"/><stop offset=".763" stop-color="#00a"/><stop offset="1" stop-color="#0af"/></linearGradient><use xlink:href="#C" y="0.1" style="clip-path:url(#M)" fill="url(#N)"/><defs><path id="O" d="M397.2 426.8l-52.5 29.9c-2.7 1.5-3.7 5-2.1 7.7 1 1.8 3 2.9 4.9 2.9 1 0 1.9-.2 2.8-.7l52.5-29.9c2.7-1.5 3.7-5 2.1-7.7-1.5-2.8-5-3.8-7.7-2.2z"/></defs><clipPath id="P"><use xlink:href="#O"/></clipPath><linearGradient id="Q" gradientUnits="userSpaceOnUse" x1="40.078" y1="408.846" x2="761.704" y2="408.846"><stop offset="0" stop-color="#fa0"/><stop offset=".214" stop-color="#f50"/><stop offset=".431" stop-color="#DA0B17"/><stop offset=".763" stop-color="#00a"/><stop offset="1" stop-color="#0af"/></linearGradient><use xlink:href="#C" style="clip-path:url(#P)" fill="url(#Q)"/></svg>