<svg xmlns="http://www.w3.org/2000/svg" xmlns:xlink="http://www.w3.org/1999/xlink" viewBox="0 0 800 800"><defs><path id="A" d="M685.3 523.4l-62.2-56v-77.6c0-2-1.1-3.9-2.8-4.9l-68.4-39.5v-79.2c0-2-1.1-3.9-2.8-4.9l-71.3-41.1a5.79 5.79 0 0 0-5.7 0l-67.7 39.1-65.7-37.9v-57.1c0-3.1-2.5-5.7-5.7-5.7a5.63 5.63 0 0 0-5.7 5.7v57.1l-63.7 36.8-70.1-40.5a5.79 5.79 0 0 0-5.7 0l-71.3 41.1c-2.7 1.6-3.6 5-2.1 7.7 1.6 2.7 5 3.6 7.7 2.1l68.4-39.5 65.6 37.9v75.8l-68.4 39.5c-2.7 1.6-3.6 5-2.1 7.7 1 1.8 3 2.8 4.9 2.8 1 0 1.9-.2 2.8-.8l71.3-41.1c1.8-1 2.8-2.9 2.8-4.9v-77.1l65.4-37.7 65.1 37.6v79.8c0 2 1.1 3.9 2.8 4.9l68.4 39.5v75.7l-68.4 39.5c-1.8 1-2.8 2.9-2.8 4.9v82.3c0 2 1.1 3.9 2.8 4.9l71.3 41.1c.9.5 1.9.8 2.8.8a5.66 5.66 0 0 0 2.8-.8l69.7-40.2 99.8 9c2.2 0 4.3-1.3 5.2-3.4l34.2-76.8a5.45 5.45 0 0 0-1.2-6.6zm-73.6-54.6l-65.4 37.8-65.7-37.9V393l65.6-37.9 65.6 37.9v75.8zM409.3 269.5l65.6-37.9 65.6 37.9v75.7l-65.6 37.9-65.6-37.9v-75.7zm65.6 360.4L409.3 592v-75.7l65.4-37.8 65.7 37.9V592l-65.5 37.9zm168.8-31.5l-91.9-8.3v-73.5l66.4-38.4 56.4 50.8-30.9 69.4z"/><path id="B" d="M107.4 151h587v497.2h-587z"/></defs><use xlink:href="#A"/><clipPath id="C"><use xlink:href="#A"/></clipPath><use xlink:href="#B" clip-path="url(#C)"/><defs><path id="D" d="M480.9 367.2c1.6-2.7.6-6.2-2.1-7.7l-52.3-30.2c-2.7-1.6-6.2-.6-7.7 2.1-1.6 2.7-.6 6.2 2.1 7.7l52.3 30.2c.9.5 1.9.8 2.8.8 2 0 3.9-1 4.9-2.9z"/></defs><use xlink:href="#D"/><clipPath id="E"><use xlink:href="#D"/></clipPath><use xlink:href="#B" clip-path="url(#E)"/><defs><path id="F" d="M608.4 491.5c-2.1 2.3-1.9 5.9.4 8l44.9 40.4c1.1 1 2.4 1.5 3.8 1.5 1.6 0 3.1-.6 4.2-1.9 2.1-2.3 1.9-5.9-.4-8l-44.9-40.4c-2.3-2.1-5.9-1.9-8 .4z"/></defs><use xlink:href="#F"/><clipPath id="G"><use xlink:href="#F"/></clipPath><use xlink:href="#B" clip-path="url(#G)"/><defs><path id="H" d="M473.9 492l-52.5 29.9c-2.7 1.5-3.7 5-2.1 7.7 1 1.8 3 2.9 4.9 2.9 1 0 1.9-.2 2.8-.7l52.5-29.9c2.7-1.5 3.7-5 2.1-7.7-1.5-2.8-5-3.8-7.7-2.2z"/></defs><use xlink:href="#H"/><clipPath id="I"><use xlink:href="#H"/></clipPath><use xlink:href="#B" clip-path="url(#I)"/><defs><path id="J" d="M523.5 517.5c-3.1 0-5.7 2.5-5.7 5.7v60.4c0 3.1 2.5 5.7 5.7 5.7 3.1 0 5.7-2.5 5.7-5.7v-60.4c0-3.1-2.6-5.7-5.7-5.7z"/></defs><use xlink:href="#J"/><clipPath id="K"><use xlink:href="#J"/></clipPath><use xlink:href="#B" clip-path="url(#K)"/><defs><path id="L" d="M478.4 605.3l-52.3-30.2c-2.7-1.6-6.2-.6-7.7 2.1-1.6 2.7-.6 6.2 2.1 7.7l52.3 30.2c.9.5 1.9.8 2.8.8 2 0 3.9-1 4.9-2.8 1.6-2.8.7-6.3-2.1-7.8z"/></defs><use xlink:href="#L"/><clipPath id="M"><use xlink:href="#L"/></clipPath><use xlink:href="#B" clip-path="url(#M)"/></svg>